<svg viewBox="0 0 147 57" xmlns="http://www.w3.org/2000/svg"><g fill="none" fill-rule="evenodd"><path d="M.297 56.07c5.799-3.674 9.73-6.994 11.792-9.962 2.062-2.968 3.92-7.98 5.574-15.034l1.396 8.153-.473-2.611 4.473-3.961c1.498 7.38 3.733 12.336 6.705 14.866 2.973 2.53 8.62 4.282 16.942 5.257" stroke="#FFFFFF"/><path d="M26.435 42.437c5.868-6.275 9.69-9.814 11.465-10.616 2.662-1.204 3.458.918 10.672-4.24 4.81-3.44 7.88-7.56 9.21-12.36 4.129-3.548 6.899-5.994 8.31-7.337 4.165-3.967 5.977-6.215 6.681-6.417 1.593-.456 1.176 1.953 5.46 7.165a176.73 176.73 0 008.695 9.832M31.64 48.662c4.553-3.88 7.364-6.015 8.432-6.402 1.602-.582 5.95.796 7.544 0 1.595-.797 4.802-5.286 5.996-5.783.796-.332 2.334.368 4.615 2.099l-9.729 10.803c10.92-12.184 16.979-18.276 18.178-18.276 1.797 0 6.763 6.072 13.73 10.29 3.32 2.01 12.125 9.05 12.125 9.05" stroke="#FFFFFF"/><path d="M68.03 32.049c4.482-5.264 7.494-8.415 9.036-9.453 1.541-1.038 4.491-2.281 8.85-3.73 3.302-1.038 5.387-2.038 6.255-3 2.186-2.423 2.646-3.882 3.213-3.882.904 0 4.272 3.084 10.105 9.252l12.716 9.918c.595-1.468 1.12-2.591 1.572-3.37.454-.778 1.16-1.77 2.122-2.975 4 5.844 7.534 10.02 10.603 12.528 3.069 2.508 7.84 5.119 14.313 7.833" stroke="#FFFFFF"/><path d="M79.392 40.469c6.757-.19 11.576-.854 14.458-1.995 2.882-1.14 6.42-3.443 10.613-6.907l1.073 5.275-.477-3.004 3.2-3.553c4.211 7.915 8.254 12.61 12.128 14.086 3.874 1.477 11.203 2.097 21.988 1.86" stroke="#FFFFFF"/><path d="M80.399 55.915c7.002-2.754 12.055-5.107 15.16-7.059 3.104-1.951 6.412-4.921 9.922-8.91 4.182 4.15 7.814 7.12 10.894 8.91s8.57 4.143 16.465 7.059" stroke="#FFFFFF"/><path d="M35.708 33.405c3.034.776 5.102 1.51 6.204 2.204 1.102.694 2.565 1.853 4.39 3.477l.47-5.153c1.966-.99 3.44-1.948 4.42-2.873.981-.926 2.936-3.203 5.864-6.832 2.618-.127 4.544-.127 5.78 0 1.234.126 2.545.457 3.933.993.23-1.899.771-3.143 1.625-3.733.854-.59 2.649-.96 5.385-1.109-2.256-2.206-3.361-3.997-3.316-5.372.046-1.375 1.277-3.371 3.694-5.988 3.835 4.718 6.236 7.43 7.205 8.137.969.708 2.65.977 5.045.809-3.436-3.637-5.9-6.388-7.39-8.253-1.49-1.865-3.434-4.63-5.834-8.295-3.537 3.495-6.177 6.03-7.921 7.602-1.744 1.573-4.13 3.664-7.155 6.27-2.916 5.709-5.685 9.66-8.308 11.858-2.28 1.91-6.53 4.206-11.15 4.812-.526.07-1.507.551-2.94 1.446z" stroke="#FFFFFF" fill="#FFFFFF"/><path d="M70.097 30.035h4.772v5.463c5.424-4.676 9.908-7.147 13.452-7.413 3.544-.265 7.463 1.762 11.756 6.084l-5.893-6.95c.953-5.998 2.518-8.996 4.695-8.996 3.266 0 5.593 7.377 6.397 8.077.536.466 2.18 1.062 4.935 1.785l10.585 8.885 1.988-4.459 13.221 7.452c-4.198-2.928-7.098-5.266-8.7-7.015-1.602-1.749-3.45-4.524-5.541-8.324-1.217 1.577-2.022 2.731-2.416 3.461-.395.73-.715 1.661-.962 2.793-5.322-3.599-9.116-6.336-11.384-8.211-1.78-1.471-3.86-3.585-7.5-7.273-.667-.676-1.948-1.594-3.843-2.757-2.033 2.704-3.937 4.566-5.713 5.586-3.815 2.19-10.404 2.865-12.628 4.444-3.778 2.682-6.185 5.138-7.221 7.368zM105.5 39.995c-2.06 2.317-3.714 4.038-4.96 5.166-1.248 1.127-2.905 2.399-4.973 3.815l3.164 1.978c2.324-1.997 3.976-3.045 4.958-3.143.981-.098 1.96.687 2.934 2.356.486-1.83 1.094-2.86 1.825-3.088.73-.228 2.726.016 5.987.732-2.195-1.445-3.745-2.563-4.652-3.356-.906-.793-2.333-2.28-4.282-4.46zM18.742 36.679l4.209-3.053 4.347 11.545 1.607.98-4.153 5.052c-.186-5.335-.548-8.265-1.087-8.789-.54-.523-1.91.722-4.11 3.737l-.813-9.472 4.209-3.053" stroke="#FFFFFF" fill="#FFFFFF"/></g></svg>